# xmcd
#
# Track frame offsets: 
#        150
#        18738
#        25203
#        34998
#        43818
#        58113
#        67113
#        80763
#        88473
#        98148
#        104673
#        112263
#        119943
#        128268
#        134118
#        151293
#        163263
#        172008
#        185838
#        212088
#        239793
#        245253
#
# Disc length: 3345 seconds
#
# Revision: 7
# Processed by: cddbd v1.5.2PL0 Copyright (c) Steve Scherf et al.
# Submitted via: ExactAudioCopy v1.0b3
#
DISCID=620d0f16
DTITLE=Frédéric Chopin - Divers dont Mazurkas et Valses
DYEAR=2006
DGENRE=Romantique
TTITLE0=Mazurka n° 43 en la mineur « Notre temps » - Allegretto
TTITLE1=Mazurka n° 44 op. posthume 67 n° 1 - Vivace
TTITLE2=Mazurka n° 45 op. posthume 67 n° 2 - Cantabile
TTITLE3=Mazurka n° 46 op. posthume 67 n° 3 - Allegretto
TTITLE4=Mazurka n° 47 op. posthume 67 n° 4 - Moderato animato
TTITLE5=Mazurka n° 48 op. posthume 68 n° 1 - Vivace
TTITLE6=Mazurka n° 49 op. posthume 68 n° 2 - Lento
TTITLE7=Mazurka n° 50 op. posthume 68 n° 3 - Allegro ma non roppo
TTITLE8=Mazurka n° 51 op. posthume 68 n° 4 - Andantino
TTITLE9=Mazurka n° 52 - Con anima
TTITLE10=Mazurka n° 53 - Allegro non troppo
TTITLE11=Mazurka n° 54 - Allegro non troppo
TTITLE12=Mazurka n° 55 - Allegro non troppo
TTITLE13=Mazurka n° 56 - Allegretto
TTITLE14=Mazurka n° 57 - Vivace
TTITLE15=Mazurka n° 58 - Poco mosso
TTITLE16=Valse à Melle Élise Gavard op. posthume 70 n° 2 (version orig
TTITLE16=inale)
TTITLE17=Valse op. posthume 70 n° 2 (version Jules Fontana)
TTITLE18=Marche funèbre en ut mineur op. 72 n° 2 (version Jules Fontan
TTITLE18=a)
TTITLE19=Marche funèbre en ut mineur op. 72 n° 2 (édition d'Oxford)
TTITLE20=Cantabile en si bémol majeur - Andantino
TTITLE21=Prélude en la bémol majeur « À  mon ami Pierre Wolff (Paris 1
TTITLE21=0 Juillet 1834) » B. 86 - Presto con leggierezza
EXTD=YEAR: 2006
EXTT0=
EXTT1=
EXTT2=
EXTT3=
EXTT4=
EXTT5=
EXTT6=
EXTT7=
EXTT8=
EXTT9=
EXTT10=
EXTT11=
EXTT12=
EXTT13=
EXTT14=
EXTT15=
EXTT16=
EXTT17=
EXTT18=
EXTT19=
EXTT20=
EXTT21=
PLAYORDER=
